<svg xmlns="http://www.w3.org/2000/svg" width="2200" height="1240" viewBox="0 0 2200 1240"><rect width="2200" height="1240" fill="#F8FAFC"/><text x="115" y="68" font-family="sans-serif" font-size="38" font-weight="700" fill="#162B40">2D / 3D：专业组织、小核心团队、独立作者、量产信号</text><text x="115" y="108" font-family="sans-serif" font-size="21" fill="#5B6C80">所有时间点仅代表有证据的例子，不代表行业首次。曲线不能假定四类生产者总按固定顺序进入。</text><line x1="650" y1="165" x2="650" y2="1034" stroke="#E2E8EE" stroke-width="1"/><text x="650" y="151" text-anchor="middle" font-size="19" fill="#617389" font-family="sans-serif">1980</text><line x1="800" y1="165" x2="800" y2="1034" stroke="#E2E8EE" stroke-width="1"/><text x="800" y="151" text-anchor="middle" font-size="19" fill="#617389" font-family="sans-serif">1985</text><line x1="950" y1="165" x2="950" y2="1034" stroke="#E2E8EE" stroke-width="1"/><text x="950" y="151" text-anchor="middle" font-size="19" fill="#617389" font-family="sans-serif">1990</text><line x1="1100" y1="165" x2="1100" y2="1034" stroke="#E2E8EE" stroke-width="1"/><text x="1100" y="151" text-anchor="middle" font-size="19" fill="#617389" font-family="sans-serif">1995</text><line x1="1250" y1="165" x2="1250" y2="1034" stroke="#E2E8EE" stroke-width="1"/><text x="1250" y="151" text-anchor="middle" font-size="19" fill="#617389" font-family="sans-serif">2000</text><line x1="1400" y1="165" x2="1400" y2="1034" stroke="#E2E8EE" stroke-width="1"/><text x="1400" y="151" text-anchor="middle" font-size="19" fill="#617389" font-family="sans-serif">2005</text><line x1="1550" y1="165" x2="1550" y2="1034" stroke="#E2E8EE" stroke-width="1"/><text x="1550" y="151" text-anchor="middle" font-size="19" fill="#617389" font-family="sans-serif">2010</text><line x1="1700" y1="165" x2="1700" y2="1034" stroke="#E2E8EE" stroke-width="1"/><text x="1700" y="151" text-anchor="middle" font-size="19" fill="#617389" font-family="sans-serif">2015</text><line x1="1850" y1="165" x2="1850" y2="1034" stroke="#E2E8EE" stroke-width="1"/><text x="1850" y="151" text-anchor="middle" font-size="19" fill="#617389" font-family="sans-serif">2020</text><line x1="2000" y1="165" x2="2000" y2="1034" stroke="#E2E8EE" stroke-width="1"/><text x="2000" y="151" text-anchor="middle" font-size="19" fill="#617389" font-family="sans-serif">2025</text><rect x="100" y="189" width="1990" height="143" rx="13" stroke="#E3E9F0" fill="white"/><text x="120" y="236" font-family="sans-serif" font-size="24" font-weight="700" fill="#20374D">2D 平台动作</text><text x="120" y="269" font-family="sans-serif" font-size="17" fill="#6A7E91">L:专业品牌 / M:核心 5—7 / I:个人商业</text><line x1="500" x2="2030" y1="282" y2="282" stroke="#D3DCE7" stroke-width="2"/><path d="M740 282 L740 229" stroke="#2B806B" stroke-width="2"/><circle cx="740" cy="282" r="8" stroke="#2B806B" stroke-width="3" fill="#2B806B"/><text x="740" y="220" font-family="sans-serif" font-size="18" font-weight="700" fill="#2B806B" text-anchor="middle">1983 I</text><text x="740" y="243" font-family="sans-serif" font-size="17" fill="#263F56" text-anchor="middle">Manic Miner</text><path d="M800 282 L800 297" stroke="#3D64A5" stroke-width="2"/><circle cx="800" cy="282" r="8" stroke="#3D64A5" stroke-width="3" fill="#3D64A5"/><text x="800" y="316" font-family="sans-serif" font-size="18" font-weight="700" fill="#3D64A5" text-anchor="middle">1985 L</text><text x="800" y="339" font-family="sans-serif" font-size="17" fill="#263F56" text-anchor="middle">Mario</text><path d="M980 282 L980 229" stroke="#BA7550" stroke-width="2"/><circle cx="980" cy="282" r="8" stroke="#BA7550" stroke-width="3" fill="#BA7550"/><text x="980" y="220" font-family="sans-serif" font-size="18" font-weight="700" fill="#BA7550" text-anchor="middle">1991 M</text><text x="980" y="243" font-family="sans-serif" font-size="17" fill="#263F56" text-anchor="middle">Sonic 5→7</text><path d="M1760 282 L1760 297" stroke="#C69A2A" stroke-width="2"/><circle cx="1760" cy="282" r="9" stroke="#C69A2A" stroke-width="3" fill="#FFFFFF"/><text x="1760" y="316" font-family="sans-serif" font-size="18" font-weight="700" fill="#C69A2A" text-anchor="middle">2017 P</text><text x="1760" y="339" font-family="sans-serif" font-size="17" fill="#263F56" text-anchor="middle">Steam 96款</text><rect x="100" y="358" width="1990" height="143" rx="13" stroke="#E3E9F0" fill="white"/><text x="120" y="405" font-family="sans-serif" font-size="24" font-weight="700" fill="#20374D">3D 平台动作</text><text x="120" y="438" font-family="sans-serif" font-size="17" fill="#6A7E91">L:商业平台 / M:核心 8 / I:作者驱动</text><line x1="500" x2="2030" y1="451" y2="451" stroke="#D3DCE7" stroke-width="2"/><path d="M1122 451 L1122 398" stroke="#3D64A5" stroke-width="2"/><circle cx="1122" cy="451" r="8" stroke="#3D64A5" stroke-width="3" fill="#3D64A5"/><text x="1122" y="389" font-family="sans-serif" font-size="18" font-weight="700" fill="#3D64A5" text-anchor="middle">1996 L</text><text x="1122" y="412" font-family="sans-serif" font-size="17" fill="#263F56" text-anchor="middle">Mario 64</text><path d="M1138 451 L1138 466" stroke="#BA7550" stroke-width="2"/><circle cx="1138" cy="451" r="8" stroke="#BA7550" stroke-width="3" fill="#BA7550"/><text x="1138" y="485" font-family="sans-serif" font-size="18" font-weight="700" fill="#BA7550" text-anchor="middle">1996 M</text><text x="1138" y="508" font-family="sans-serif" font-size="17" fill="#263F56" text-anchor="middle">Crash 8人</text><path d="M1760 451 L1760 398" stroke="#2B806B" stroke-width="2"/><circle cx="1760" cy="451" r="8" stroke="#2B806B" stroke-width="3" fill="#2B806B"/><text x="1760" y="389" font-family="sans-serif" font-size="18" font-weight="700" fill="#2B806B" text-anchor="middle">2017 I</text><text x="1760" y="412" font-family="sans-serif" font-size="17" fill="#263F56" text-anchor="middle">A Hat in Time</text><path d="M1850 451 L1850 466" stroke="#2B806B" stroke-width="2"/><circle cx="1850" cy="451" r="8" stroke="#2B806B" stroke-width="3" fill="#2B806B"/><text x="1850" y="485" font-family="sans-serif" font-size="18" font-weight="700" fill="#2B806B" text-anchor="middle">2020 I</text><text x="1850" y="508" font-family="sans-serif" font-size="17" fill="#263F56" text-anchor="middle">Pumpkin Jack</text><rect x="100" y="527" width="1990" height="143" rx="13" stroke="#E3E9F0" fill="white"/><text x="120" y="574" font-family="sans-serif" font-size="24" font-weight="700" fill="#20374D">3D FPS / MOD</text><text x="120" y="607" font-family="sans-serif" font-size="17" fill="#6A7E91">核心人数分层尚缺，MOD不是独立商业成品</text><line x1="500" x2="2030" y1="620" y2="620" stroke="#D3DCE7" stroke-width="2"/><path d="M1040 620 L1040 567" stroke="#3D64A5" stroke-width="2"/><circle cx="1040" cy="620" r="8" stroke="#3D64A5" stroke-width="3" fill="#3D64A5"/><text x="1040" y="558" font-family="sans-serif" font-size="18" font-weight="700" fill="#3D64A5" text-anchor="middle">1993 L</text><text x="1040" y="581" font-family="sans-serif" font-size="17" fill="#263F56" text-anchor="middle">DOOM 前沿</text><path d="M1220 620 L1220 635" stroke="#708099" stroke-width="2"/><circle cx="1220" cy="620" r="8" stroke="#708099" stroke-width="3" fill="#708099"/><text x="1220" y="654" font-family="sans-serif" font-size="18" font-weight="700" fill="#708099" text-anchor="middle">1999 T</text><text x="1220" y="677" font-family="sans-serif" font-size="17" fill="#263F56" text-anchor="middle">CS MOD</text><path d="M1790 620 L1790 567" stroke="#2B806B" stroke-width="2"/><circle cx="1790" cy="620" r="8" stroke="#2B806B" stroke-width="3" fill="#2B806B"/><text x="1790" y="558" font-family="sans-serif" font-size="18" font-weight="700" fill="#2B806B" text-anchor="middle">2018 I</text><text x="1790" y="581" font-family="sans-serif" font-size="17" fill="#263F56" text-anchor="middle">DUSK</text><rect x="100" y="696" width="1990" height="143" rx="13" stroke="#E3E9F0" fill="white"/><text x="120" y="743" font-family="sans-serif" font-size="24" font-weight="700" fill="#20374D">3D 系统空间模拟</text><text x="120" y="776" font-family="sans-serif" font-size="17" fill="#6A7E91">不能假设 3D 必须先由大型团队做</text><line x1="500" x2="2030" y1="789" y2="789" stroke="#D3DCE7" stroke-width="2"/><path d="M770 789 L770 736" stroke="#2B806B" stroke-width="2"/><circle cx="770" cy="789" r="8" stroke="#2B806B" stroke-width="3" fill="#2B806B"/><text x="770" y="727" font-family="sans-serif" font-size="18" font-weight="700" fill="#2B806B" text-anchor="middle">1984 I</text><text x="770" y="750" font-family="sans-serif" font-size="17" fill="#263F56" text-anchor="middle">Elite 双作者</text><path d="M1520 789 L1520 804" stroke="#2B806B" stroke-width="2"/><circle cx="1520" cy="789" r="8" stroke="#2B806B" stroke-width="3" fill="#2B806B"/><text x="1520" y="823" font-family="sans-serif" font-size="18" font-weight="700" fill="#2B806B" text-anchor="middle">2009 I</text><text x="1520" y="846" font-family="sans-serif" font-size="17" fill="#263F56" text-anchor="middle">Minecraft 初期</text><rect x="100" y="865" width="1990" height="143" rx="13" stroke="#E3E9F0" fill="white"/><text x="120" y="912" font-family="sans-serif" font-size="24" font-weight="700" fill="#20374D">3D 平台托管 UGC</text><text x="120" y="945" font-family="sans-serif" font-size="17" fill="#6A7E91">Q是跨Creative+UEFN作者总数，不是某个游戏品类</text><line x1="500" x2="2030" y1="958" y2="958" stroke="#D3DCE7" stroke-width="2"/><path d="M1790 958 L1790 905" stroke="#708099" stroke-width="2"/><circle cx="1790" cy="958" r="8" stroke="#708099" stroke-width="3" fill="#708099"/><text x="1790" y="896" font-family="sans-serif" font-size="18" font-weight="700" fill="#708099" text-anchor="middle">2018 T</text><text x="1790" y="919" font-family="sans-serif" font-size="17" fill="#263F56" text-anchor="middle">Creative</text><path d="M1940 958 L1940 973" stroke="#708099" stroke-width="2"/><circle cx="1940" cy="958" r="8" stroke="#708099" stroke-width="3" fill="#708099"/><text x="1940" y="992" font-family="sans-serif" font-size="18" font-weight="700" fill="#708099" text-anchor="middle">2023 T</text><text x="1940" y="1015" font-family="sans-serif" font-size="17" fill="#263F56" text-anchor="middle">UEFN</text><path d="M1970 958 L1970 905" stroke="#9460A8" stroke-width="2"/><circle cx="1970" cy="958" r="8" stroke="#9460A8" stroke-width="3" fill="#9460A8"/><text x="1970" y="896" font-family="sans-serif" font-size="18" font-weight="700" fill="#9460A8" text-anchor="middle">2024 Q</text><text x="1970" y="919" font-family="sans-serif" font-size="17" fill="#263F56" text-anchor="middle">70k创作者</text><circle cx="114" cy="1120" r="11" stroke="#3D64A5" stroke-width="3" fill="#3D64A5"/><text x="139" y="1127" font-family="sans-serif" font-size="19" fill="#3C5367">头部专业环境</text><circle cx="769" cy="1120" r="11" stroke="#BA7550" stroke-width="3" fill="#BA7550"/><text x="794" y="1127" font-family="sans-serif" font-size="19" fill="#3C5367">中等核心规模</text><circle cx="1424" cy="1120" r="11" stroke="#2B806B" stroke-width="3" fill="#2B806B"/><text x="1449" y="1127" font-family="sans-serif" font-size="19" fill="#3C5367">独立作者产品</text><circle cx="114" cy="1163" r="11" stroke="#708099" stroke-width="3" fill="#708099"/><text x="139" y="1170" font-family="sans-serif" font-size="19" fill="#3C5367">MOD / 平台基座</text><circle cx="769" cy="1163" r="11" stroke="#C69A2A" stroke-width="3" fill="white"/><text x="794" y="1170" font-family="sans-serif" font-size="19" fill="#3C5367">商店标签数量</text><circle cx="1424" cy="1163" r="11" stroke="#9460A8" stroke-width="3" fill="#9460A8"/><text x="1449" y="1170" font-family="sans-serif" font-size="19" fill="#3C5367">有官方作者总数</text><text x="112" y="1222" font-family="sans-serif" font-size="16" fill="#627589">M 是制作小队人员口径，不等于独立的中等规模公司；完整验证/缺口见 007 文档。2024 Creator 总量含 Creative+UEFN。</text></svg>