<svg xmlns="http://www.w3.org/2000/svg" width="3100" height="1940" viewBox="0 0 3100 1940">
<rect width="3100" height="1940" fill="#F7F9FC"/>
<text x="92" y="78" font-family="sans-serif" font-size="47" fill="#15334B" font-weight="750">游戏产品生产能力扩散图｜1970—2026</text>
<text x="94" y="122" font-family="sans-serif" font-size="24" fill="#526A7F">8 条玩法—技术路径 × 专业／中等核心／独立作者／工具—MOD—平台；年份均为可审计锚点，不代表行业首次或量产元年</text>
<rect x="92" y="145" width="2893" height="63" rx="12" fill="#E8EFF6"/><circle cx="114" cy="176" r="10" stroke="#2563A9" stroke-width="3" fill="#2563A9"/><text x="136" y="183" font-family="sans-serif" font-size="20" fill="#263D51">专业作品</text><circle cx="399" cy="176" r="10" stroke="#248B77" stroke-width="3" fill="#248B77"/><text x="421" y="183" font-family="sans-serif" font-size="20" fill="#263D51">5–49 核心人员</text><circle cx="734" cy="176" r="10" stroke="#C46B2E" stroke-width="3" fill="#C46B2E"/><text x="756" y="183" font-family="sans-serif" font-size="20" fill="#263D51">个人／独立产品</text><circle cx="1019" cy="176" r="10" stroke="#D99A38" stroke-width="3" fill="#FFFFFF"/><text x="1041" y="183" font-family="sans-serif" font-size="20" fill="#263D51">MOD／原型验证</text><circle cx="1349" cy="176" r="10" stroke="#B44B4B" stroke-width="3" fill="#B44B4B"/><text x="1371" y="183" font-family="sans-serif" font-size="20" fill="#263D51">技术前沿</text><circle cx="1634" cy="176" r="10" stroke="#7566B8" stroke-width="3" fill="#7566B8"/><text x="1656" y="183" font-family="sans-serif" font-size="20" fill="#263D51">工具／平台供给</text><circle cx="1919" cy="176" r="10" stroke="#814CA5" stroke-width="3" fill="#814CA5"/><text x="1941" y="183" font-family="sans-serif" font-size="20" fill="#263D51">平台创作者总量</text><line x1="560" y1="240" x2="560" y2="1768" stroke="#DDE5ED" stroke-width="1"/><text x="560" y="233" text-anchor="middle" font-family="sans-serif" font-size="22" fill="#71859B">1970</text><line x1="776.5178571428571" y1="240" x2="776.5178571428571" y2="1768" stroke="#DDE5ED" stroke-width="1"/><text x="776.5178571428571" y="233" text-anchor="middle" font-family="sans-serif" font-size="22" fill="#71859B">1975</text><line x1="993.0357142857142" y1="240" x2="993.0357142857142" y2="1768" stroke="#DDE5ED" stroke-width="1"/><text x="993.0357142857142" y="233" text-anchor="middle" font-family="sans-serif" font-size="22" fill="#71859B">1980</text><line x1="1209.5535714285716" y1="240" x2="1209.5535714285716" y2="1768" stroke="#DDE5ED" stroke-width="1"/><text x="1209.5535714285716" y="233" text-anchor="middle" font-family="sans-serif" font-size="22" fill="#71859B">1985</text><line x1="1426.0714285714284" y1="240" x2="1426.0714285714284" y2="1768" stroke="#DDE5ED" stroke-width="1"/><text x="1426.0714285714284" y="233" text-anchor="middle" font-family="sans-serif" font-size="22" fill="#71859B">1990</text><line x1="1642.5892857142858" y1="240" x2="1642.5892857142858" y2="1768" stroke="#DDE5ED" stroke-width="1"/><text x="1642.5892857142858" y="233" text-anchor="middle" font-family="sans-serif" font-size="22" fill="#71859B">1995</text><line x1="1859.107142857143" y1="240" x2="1859.107142857143" y2="1768" stroke="#DDE5ED" stroke-width="1"/><text x="1859.107142857143" y="233" text-anchor="middle" font-family="sans-serif" font-size="22" fill="#71859B">2000</text><line x1="2075.625" y1="240" x2="2075.625" y2="1768" stroke="#DDE5ED" stroke-width="1"/><text x="2075.625" y="233" text-anchor="middle" font-family="sans-serif" font-size="22" fill="#71859B">2005</text><line x1="2292.142857142857" y1="240" x2="2292.142857142857" y2="1768" stroke="#DDE5ED" stroke-width="1"/><text x="2292.142857142857" y="233" text-anchor="middle" font-family="sans-serif" font-size="22" fill="#71859B">2010</text><line x1="2508.6607142857147" y1="240" x2="2508.6607142857147" y2="1768" stroke="#DDE5ED" stroke-width="1"/><text x="2508.6607142857147" y="233" text-anchor="middle" font-family="sans-serif" font-size="22" fill="#71859B">2015</text><line x1="2725.1785714285716" y1="240" x2="2725.1785714285716" y2="1768" stroke="#DDE5ED" stroke-width="1"/><text x="2725.1785714285716" y="233" text-anchor="middle" font-family="sans-serif" font-size="22" fill="#71859B">2020</text><line x1="2941.6964285714284" y1="240" x2="2941.6964285714284" y2="1768" stroke="#DDE5ED" stroke-width="1"/><text x="2941.6964285714284" y="233" text-anchor="middle" font-family="sans-serif" font-size="22" fill="#71859B">2025</text><rect x="80" y="249" width="2940" height="154" rx="16" fill="#FFFFFF" stroke="#E0E6EC"/>
<text x="100" y="289" font-family="sans-serif" font-size="23" font-weight="650" fill="#16384F">01  单屏与卷轴动作｜2D</text>
<text x="100" y="320" font-family="sans-serif" font-size="17" fill="#61778B">专业街机、卧室作者、企业内部小核心和个人游戏长期并存</text>
<line x1="560" y1="323" x2="2985" y2="323" stroke="#CAD6E2" stroke-width="2"/><line x1="646.6071428571429" y1="323" x2="646.6071428571429" y2="304" stroke="#2563A9" stroke-width="2"/><circle cx="646.6071428571429" cy="323" r="9" fill="#2563A9" stroke="#2563A9" stroke-width="3"/><text x="646.6071428571429" y="282" text-anchor="middle" font-size="19" font-family="sans-serif" font-weight="700" fill="#2563A9">1972</text>
<text x="646.6071428571429" y="306" text-anchor="middle" font-size="18" font-family="sans-serif" fill="#243D52">Pong</text><line x1="1036.3392857142858" y1="323" x2="1036.3392857142858" y2="342" stroke="#2563A9" stroke-width="2"/><circle cx="1036.3392857142858" cy="323" r="9" fill="#2563A9" stroke="#2563A9" stroke-width="3"/><text x="1036.3392857142858" y="375" text-anchor="middle" font-size="19" font-family="sans-serif" font-weight="700" fill="#2563A9">1981</text>
<text x="1036.3392857142858" y="399" text-anchor="middle" font-size="18" font-family="sans-serif" fill="#243D52">Donkey Kong</text><line x1="1122.9464285714284" y1="323" x2="1122.9464285714284" y2="304" stroke="#C46B2E" stroke-width="2"/><circle cx="1122.9464285714284" cy="323" r="9" fill="#C46B2E" stroke="#C46B2E" stroke-width="3"/><text x="1122.9464285714284" y="282" text-anchor="middle" font-size="19" font-family="sans-serif" font-weight="700" fill="#C46B2E">1983</text>
<text x="1122.9464285714284" y="306" text-anchor="middle" font-size="18" font-family="sans-serif" fill="#243D52">Manic Miner</text><line x1="1209.5535714285716" y1="323" x2="1209.5535714285716" y2="342" stroke="#2563A9" stroke-width="2"/><circle cx="1209.5535714285716" cy="323" r="9" fill="#2563A9" stroke="#2563A9" stroke-width="3"/><text x="1209.5535714285716" y="375" text-anchor="middle" font-size="19" font-family="sans-serif" font-weight="700" fill="#2563A9">1985</text>
<text x="1209.5535714285716" y="399" text-anchor="middle" font-size="18" font-family="sans-serif" fill="#243D52">Super Mario</text><line x1="1426.0714285714284" y1="323" x2="1426.0714285714284" y2="304" stroke="#248B77" stroke-width="2"/><circle cx="1426.0714285714284" cy="323" r="9" fill="#248B77" stroke="#248B77" stroke-width="3"/><text x="1426.0714285714284" y="282" text-anchor="middle" font-size="19" font-family="sans-serif" font-weight="700" fill="#248B77">1990</text>
<text x="1426.0714285714284" y="306" text-anchor="middle" font-size="18" font-family="sans-serif" fill="#243D52">Commander Keen</text><line x1="1469.375" y1="323" x2="1469.375" y2="342" stroke="#248B77" stroke-width="2"/><circle cx="1469.375" cy="323" r="9" fill="#248B77" stroke="#248B77" stroke-width="3"/><text x="1469.375" y="375" text-anchor="middle" font-size="19" font-family="sans-serif" font-weight="700" fill="#248B77">1991</text>
<text x="1469.375" y="399" text-anchor="middle" font-size="18" font-family="sans-serif" fill="#243D52">Sonic 5→7人</text><line x1="2032.3214285714284" y1="323" x2="2032.3214285714284" y2="304" stroke="#C46B2E" stroke-width="2"/><circle cx="2032.3214285714284" cy="323" r="9" fill="#C46B2E" stroke="#C46B2E" stroke-width="3"/><text x="2032.3214285714284" y="282" text-anchor="middle" font-size="19" font-family="sans-serif" font-weight="700" fill="#C46B2E">2004</text>
<text x="2032.3214285714284" y="306" text-anchor="middle" font-size="18" font-family="sans-serif" fill="#243D52">Cave Story</text><rect x="80" y="433" width="2940" height="154" rx="16" fill="#F7F9FC" stroke="#E0E6EC"/>
<text x="100" y="473" font-family="sans-serif" font-size="23" font-weight="650" fill="#16384F">02  平台／第三人称动作｜3D</text>
<text x="100" y="504" font-family="sans-serif" font-size="17" fill="#61778B">3D 商业精品与小型作者作品：明确区分画面规格</text>
<line x1="560" y1="507" x2="2985" y2="507" stroke="#CAD6E2" stroke-width="2"/><line x1="1685.892857142857" y1="507" x2="1685.892857142857" y2="488" stroke="#2563A9" stroke-width="2"/><circle cx="1685.892857142857" cy="507" r="9" fill="#2563A9" stroke="#2563A9" stroke-width="3"/><text x="1685.892857142857" y="466" text-anchor="middle" font-size="19" font-family="sans-serif" font-weight="700" fill="#2563A9">1996</text>
<text x="1685.892857142857" y="490" text-anchor="middle" font-size="18" font-family="sans-serif" fill="#243D52">Mario 64</text><line x1="1685.892857142857" y1="507" x2="1685.892857142857" y2="526" stroke="#248B77" stroke-width="2"/><circle cx="1685.892857142857" cy="507" r="9" fill="#248B77" stroke="#248B77" stroke-width="3"/><text x="1685.892857142857" y="559" text-anchor="middle" font-size="19" font-family="sans-serif" font-weight="700" fill="#248B77">1996</text>
<text x="1685.892857142857" y="583" text-anchor="middle" font-size="18" font-family="sans-serif" fill="#243D52">Crash 8人</text><line x1="1772.5" y1="507" x2="1772.5" y2="488" stroke="#248B77" stroke-width="2"/><circle cx="1772.5" cy="507" r="9" fill="#248B77" stroke="#248B77" stroke-width="3"/><text x="1772.5" y="466" text-anchor="middle" font-size="19" font-family="sans-serif" font-weight="700" fill="#248B77">1998</text>
<text x="1772.5" y="490" text-anchor="middle" font-size="18" font-family="sans-serif" fill="#243D52">Spyro 13署名</text><line x1="2075.625" y1="507" x2="2075.625" y2="526" stroke="#C46B2E" stroke-width="2"/><circle cx="2075.625" cy="507" r="9" fill="#C46B2E" stroke="#C46B2E" stroke-width="3"/><text x="2075.625" y="559" text-anchor="middle" font-size="19" font-family="sans-serif" font-weight="700" fill="#C46B2E">2005</text>
<text x="2075.625" y="583" text-anchor="middle" font-size="18" font-family="sans-serif" fill="#243D52">Lugaru</text><line x1="2595.267857142857" y1="507" x2="2595.267857142857" y2="488" stroke="#C46B2E" stroke-width="2"/><circle cx="2595.267857142857" cy="507" r="9" fill="#C46B2E" stroke="#C46B2E" stroke-width="3"/><text x="2595.267857142857" y="466" text-anchor="middle" font-size="19" font-family="sans-serif" font-weight="700" fill="#C46B2E">2017</text>
<text x="2595.267857142857" y="490" text-anchor="middle" font-size="18" font-family="sans-serif" fill="#243D52">A Hat in Time</text><line x1="2725.1785714285716" y1="507" x2="2725.1785714285716" y2="526" stroke="#C46B2E" stroke-width="2"/><circle cx="2725.1785714285716" cy="507" r="9" fill="#C46B2E" stroke="#C46B2E" stroke-width="3"/><text x="2725.1785714285716" y="559" text-anchor="middle" font-size="19" font-family="sans-serif" font-weight="700" fill="#C46B2E">2020</text>
<text x="2725.1785714285716" y="583" text-anchor="middle" font-size="18" font-family="sans-serif" fill="#243D52">Pumpkin Jack</text><rect x="80" y="617" width="2940" height="154" rx="16" fill="#FFFFFF" stroke="#E0E6EC"/>
<text x="100" y="657" font-family="sans-serif" font-size="23" font-weight="650" fill="#16384F">03  角色成长与系统沙盒｜2D</text>
<text x="100" y="688" font-family="sans-serif" font-size="17" fill="#61778B">同类强调规则、状态和内容生产，不主要由渲染维度决定</text>
<line x1="560" y1="691" x2="2985" y2="691" stroke="#CAD6E2" stroke-width="2"/><line x1="2335.4464285714284" y1="691" x2="2335.4464285714284" y2="672" stroke="#C46B2E" stroke-width="2"/><circle cx="2335.4464285714284" cy="691" r="9" fill="#C46B2E" stroke="#C46B2E" stroke-width="3"/><text x="2335.4464285714284" y="650" text-anchor="middle" font-size="19" font-family="sans-serif" font-weight="700" fill="#C46B2E">2011</text>
<text x="2335.4464285714284" y="674" text-anchor="middle" font-size="18" font-family="sans-serif" fill="#243D52">Terraria</text><line x1="2551.9642857142853" y1="691" x2="2551.9642857142853" y2="710" stroke="#C46B2E" stroke-width="2"/><circle cx="2551.9642857142853" cy="691" r="9" fill="#C46B2E" stroke="#C46B2E" stroke-width="3"/><text x="2551.9642857142853" y="743" text-anchor="middle" font-size="19" font-family="sans-serif" font-weight="700" fill="#C46B2E">2016</text>
<text x="2551.9642857142853" y="767" text-anchor="middle" font-size="18" font-family="sans-serif" fill="#243D52">Stardew</text><rect x="80" y="801" width="2940" height="154" rx="16" fill="#F7F9FC" stroke="#E0E6EC"/>
<text x="100" y="841" font-family="sans-serif" font-size="23" font-weight="650" fill="#16384F">04  空间探索与系统沙盒｜3D</text>
<text x="100" y="872" font-family="sans-serif" font-size="17" fill="#61778B">1984 年就有双作者商业 3D 系统作品</text>
<line x1="560" y1="875" x2="2985" y2="875" stroke="#CAD6E2" stroke-width="2"/><line x1="1166.25" y1="875" x2="1166.25" y2="856" stroke="#C46B2E" stroke-width="2"/><circle cx="1166.25" cy="875" r="9" fill="#C46B2E" stroke="#C46B2E" stroke-width="3"/><text x="1166.25" y="834" text-anchor="middle" font-size="19" font-family="sans-serif" font-weight="700" fill="#C46B2E">1984</text>
<text x="1166.25" y="858" text-anchor="middle" font-size="18" font-family="sans-serif" fill="#243D52">Elite 双作者</text><line x1="2248.8392857142853" y1="875" x2="2248.8392857142853" y2="894" stroke="#D99A38" stroke-width="2"/><circle cx="2248.8392857142853" cy="875" r="9" fill="#FFFFFF" stroke="#D99A38" stroke-width="3"/><text x="2248.8392857142853" y="927" text-anchor="middle" font-size="19" font-family="sans-serif" font-weight="700" fill="#D99A38">2009</text>
<text x="2248.8392857142853" y="951" text-anchor="middle" font-size="18" font-family="sans-serif" fill="#243D52">Minecraft α</text><rect x="80" y="985" width="2940" height="154" rx="16" fill="#FFFFFF" stroke="#E0E6EC"/>
<text x="100" y="1025" font-family="sans-serif" font-size="23" font-weight="650" fill="#16384F">05  第一人称射击｜受限 3D／多边形</text>
<text x="100" y="1056" font-family="sans-serif" font-size="17" fill="#61778B">技术前沿、工具扩散、Jam 原型与最终商业发行分别计时</text>
<line x1="560" y1="1059" x2="2985" y2="1059" stroke="#CAD6E2" stroke-width="2"/><line x1="1512.6785714285716" y1="1059" x2="1512.6785714285716" y2="1040" stroke="#2563A9" stroke-width="2"/><circle cx="1512.6785714285716" cy="1059" r="9" fill="#2563A9" stroke="#2563A9" stroke-width="3"/><text x="1512.6785714285716" y="1018" text-anchor="middle" font-size="19" font-family="sans-serif" font-weight="700" fill="#2563A9">1992</text>
<text x="1512.6785714285716" y="1042" text-anchor="middle" font-size="18" font-family="sans-serif" fill="#243D52">Wolfenstein 3D</text><line x1="1555.9821428571427" y1="1059" x2="1555.9821428571427" y2="1040" stroke="#B44B4B" stroke-width="2"/><circle cx="1555.9821428571427" cy="1059" r="9" fill="#B44B4B" stroke="#B44B4B" stroke-width="3"/><text x="1555.9821428571427" y="1018" text-anchor="middle" font-size="19" font-family="sans-serif" font-weight="700" fill="#B44B4B">1993</text>
<text x="1555.9821428571427" y="1042" text-anchor="middle" font-size="18" font-family="sans-serif" fill="#243D52">DOOM</text><line x1="1685.892857142857" y1="1059" x2="1685.892857142857" y2="1078" stroke="#2563A9" stroke-width="2"/><circle cx="1685.892857142857" cy="1059" r="9" fill="#2563A9" stroke="#2563A9" stroke-width="3"/><text x="1685.892857142857" y="1111" text-anchor="middle" font-size="19" font-family="sans-serif" font-weight="700" fill="#2563A9">1996</text>
<text x="1685.892857142857" y="1135" text-anchor="middle" font-size="18" font-family="sans-serif" fill="#243D52">Quake</text><line x1="2422.0535714285716" y1="1059" x2="2422.0535714285716" y2="1040" stroke="#D99A38" stroke-width="2"/><circle cx="2422.0535714285716" cy="1059" r="9" fill="#FFFFFF" stroke="#D99A38" stroke-width="3"/><text x="2422.0535714285716" y="1018" text-anchor="middle" font-size="19" font-family="sans-serif" font-weight="700" fill="#D99A38">2013</text>
<text x="2422.0535714285716" y="1042" text-anchor="middle" font-size="18" font-family="sans-serif" fill="#243D52">SUPERHOT Jam</text><line x1="2551.9642857142853" y1="1059" x2="2551.9642857142853" y2="1078" stroke="#C46B2E" stroke-width="2"/><circle cx="2551.9642857142853" cy="1059" r="9" fill="#C46B2E" stroke="#C46B2E" stroke-width="3"/><text x="2551.9642857142853" y="1111" text-anchor="middle" font-size="19" font-family="sans-serif" font-weight="700" fill="#C46B2E">2016</text>
<text x="2551.9642857142853" y="1135" text-anchor="middle" font-size="18" font-family="sans-serif" fill="#243D52">SUPERHOT</text><line x1="2638.5714285714284" y1="1059" x2="2638.5714285714284" y2="1040" stroke="#C46B2E" stroke-width="2"/><circle cx="2638.5714285714284" cy="1059" r="9" fill="#C46B2E" stroke="#C46B2E" stroke-width="3"/><text x="2638.5714285714284" y="1018" text-anchor="middle" font-size="19" font-family="sans-serif" font-weight="700" fill="#C46B2E">2018</text>
<text x="2638.5714285714284" y="1042" text-anchor="middle" font-size="18" font-family="sans-serif" fill="#243D52">DUSK</text><rect x="80" y="1169" width="2940" height="154" rx="16" fill="#F7F9FC" stroke="#E0E6EC"/>
<text x="100" y="1209" font-family="sans-serif" font-size="23" font-weight="650" fill="#16384F">06  多人联网与模式验证｜3D</text>
<text x="100" y="1240" font-family="sans-serif" font-size="17" fill="#61778B">借已有服务器做 MOD 不等于承担 standalone 研发</text>
<line x1="560" y1="1243" x2="2985" y2="1243" stroke="#CAD6E2" stroke-width="2"/><line x1="1815.8035714285716" y1="1243" x2="1815.8035714285716" y2="1224" stroke="#D99A38" stroke-width="2"/><circle cx="1815.8035714285716" cy="1243" r="9" fill="#FFFFFF" stroke="#D99A38" stroke-width="3"/><text x="1815.8035714285716" y="1202" text-anchor="middle" font-size="19" font-family="sans-serif" font-weight="700" fill="#D99A38">1999</text>
<text x="1815.8035714285716" y="1226" text-anchor="middle" font-size="18" font-family="sans-serif" fill="#243D52">CS MOD</text><line x1="2378.75" y1="1243" x2="2378.75" y2="1262" stroke="#D99A38" stroke-width="2"/><circle cx="2378.75" cy="1243" r="9" fill="#FFFFFF" stroke="#D99A38" stroke-width="3"/><text x="2378.75" y="1295" text-anchor="middle" font-size="19" font-family="sans-serif" font-weight="700" fill="#D99A38">2012</text>
<text x="2378.75" y="1319" text-anchor="middle" font-size="18" font-family="sans-serif" fill="#243D52">DayZ MOD</text><line x1="2595.267857142857" y1="1243" x2="2595.267857142857" y2="1224" stroke="#2563A9" stroke-width="2"/><circle cx="2595.267857142857" cy="1243" r="9" fill="#2563A9" stroke="#2563A9" stroke-width="3"/><text x="2595.267857142857" y="1202" text-anchor="middle" font-size="19" font-family="sans-serif" font-weight="700" fill="#2563A9">2017</text>
<text x="2595.267857142857" y="1226" text-anchor="middle" font-size="18" font-family="sans-serif" fill="#243D52">PUBG</text><line x1="2855.089285714286" y1="1243" x2="2855.089285714286" y2="1262" stroke="#C46B2E" stroke-width="2"/><circle cx="2855.089285714286" cy="1243" r="9" fill="#C46B2E" stroke="#C46B2E" stroke-width="3"/><text x="2873.089285714286" y="1295" text-anchor="end" font-size="19" font-family="sans-serif" font-weight="700" fill="#C46B2E">2023</text>
<text x="2873.089285714286" y="1319" text-anchor="end" font-size="18" font-family="sans-serif" fill="#243D52">Lethal Company</text><rect x="80" y="1353" width="2940" height="154" rx="16" fill="#FFFFFF" stroke="#E0E6EC"/>
<text x="100" y="1393" font-family="sans-serif" font-size="23" font-weight="650" fill="#16384F">07  作者与脚本工具｜2D</text>
<text x="100" y="1424" font-family="sans-serif" font-size="17" fill="#61778B">早于 Unity 的创作者生态：shareware、编辑器、RPG 工具</text>
<line x1="560" y1="1427" x2="2985" y2="1427" stroke="#CAD6E2" stroke-width="2"/><line x1="1469.375" y1="1427" x2="1469.375" y2="1408" stroke="#C46B2E" stroke-width="2"/><circle cx="1469.375" cy="1427" r="9" fill="#C46B2E" stroke="#C46B2E" stroke-width="3"/><text x="1469.375" y="1386" text-anchor="middle" font-size="19" font-family="sans-serif" font-weight="700" fill="#C46B2E">1991</text>
<text x="1469.375" y="1410" text-anchor="middle" font-size="18" font-family="sans-serif" fill="#243D52">ZZT 编辑器</text><line x1="1599.2857142857142" y1="1427" x2="1599.2857142857142" y2="1446" stroke="#7566B8" stroke-width="2"/><rect x="1590.2857142857142" y="1418" width="18" height="18" rx="3" fill="#7566B8" stroke="#FFFFFF" stroke-width="2"/><text x="1599.2857142857142" y="1479" text-anchor="middle" font-size="19" font-family="sans-serif" font-weight="700" fill="#7566B8">1994</text>
<text x="1599.2857142857142" y="1503" text-anchor="middle" font-size="18" font-family="sans-serif" fill="#243D52">Klik&amp;Play 研发</text><line x1="1729.1964285714287" y1="1427" x2="1729.1964285714287" y2="1408" stroke="#7566B8" stroke-width="2"/><rect x="1720.1964285714287" y="1418" width="18" height="18" rx="3" fill="#7566B8" stroke="#FFFFFF" stroke-width="2"/><text x="1729.1964285714287" y="1386" text-anchor="middle" font-size="19" font-family="sans-serif" font-weight="700" fill="#7566B8">1997</text>
<text x="1729.1964285714287" y="1410" text-anchor="middle" font-size="18" font-family="sans-serif" fill="#243D52">RPG95</text><line x1="1815.8035714285716" y1="1427" x2="1815.8035714285716" y2="1446" stroke="#7566B8" stroke-width="2"/><rect x="1806.8035714285716" y="1418" width="18" height="18" rx="3" fill="#7566B8" stroke="#FFFFFF" stroke-width="2"/><text x="1815.8035714285716" y="1479" text-anchor="middle" font-size="19" font-family="sans-serif" font-weight="700" fill="#7566B8">1999</text>
<text x="1815.8035714285716" y="1503" text-anchor="middle" font-size="18" font-family="sans-serif" fill="#243D52">GameMaker</text><line x1="1859.107142857143" y1="1427" x2="1859.107142857143" y2="1408" stroke="#7566B8" stroke-width="2"/><rect x="1850.107142857143" y="1418" width="18" height="18" rx="3" fill="#7566B8" stroke="#FFFFFF" stroke-width="2"/><text x="1859.107142857143" y="1386" text-anchor="middle" font-size="19" font-family="sans-serif" font-weight="700" fill="#7566B8">2000</text>
<text x="1859.107142857143" y="1410" text-anchor="middle" font-size="18" font-family="sans-serif" fill="#243D52">RPG2000</text><rect x="80" y="1537" width="2940" height="154" rx="16" fill="#F7F9FC" stroke="#E0E6EC"/>
<text x="100" y="1577" font-family="sans-serif" font-size="23" font-weight="650" fill="#16384F">08  引擎与托管编辑生态｜3D</text>
<text x="100" y="1608" font-family="sans-serif" font-size="17" fill="#61778B">工具宣布年份 ≠ 独立作者可量产年份</text>
<line x1="560" y1="1611" x2="2985" y2="1611" stroke="#CAD6E2" stroke-width="2"/><line x1="2075.625" y1="1611" x2="2075.625" y2="1592" stroke="#7566B8" stroke-width="2"/><rect x="2066.625" y="1602" width="18" height="18" rx="3" fill="#7566B8" stroke="#FFFFFF" stroke-width="2"/><text x="2075.625" y="1570" text-anchor="middle" font-size="19" font-family="sans-serif" font-weight="700" fill="#7566B8">2005</text>
<text x="2075.625" y="1594" text-anchor="middle" font-size="18" font-family="sans-serif" fill="#243D52">Unity</text><line x1="2118.9285714285716" y1="1611" x2="2118.9285714285716" y2="1630" stroke="#7566B8" stroke-width="2"/><rect x="2109.9285714285716" y="1602" width="18" height="18" rx="3" fill="#7566B8" stroke="#FFFFFF" stroke-width="2"/><text x="2118.9285714285716" y="1663" text-anchor="middle" font-size="19" font-family="sans-serif" font-weight="700" fill="#7566B8">2006</text>
<text x="2118.9285714285716" y="1687" text-anchor="middle" font-size="18" font-family="sans-serif" fill="#243D52">Roblox</text><line x1="2465.357142857143" y1="1611" x2="2465.357142857143" y2="1592" stroke="#7566B8" stroke-width="2"/><rect x="2456.357142857143" y="1602" width="18" height="18" rx="3" fill="#7566B8" stroke="#FFFFFF" stroke-width="2"/><text x="2465.357142857143" y="1570" text-anchor="middle" font-size="19" font-family="sans-serif" font-weight="700" fill="#7566B8">2014</text>
<text x="2465.357142857143" y="1594" text-anchor="middle" font-size="18" font-family="sans-serif" fill="#243D52">UE4/Godot</text><line x1="2638.5714285714284" y1="1611" x2="2638.5714285714284" y2="1630" stroke="#7566B8" stroke-width="2"/><rect x="2629.5714285714284" y="1602" width="18" height="18" rx="3" fill="#7566B8" stroke="#FFFFFF" stroke-width="2"/><text x="2638.5714285714284" y="1663" text-anchor="middle" font-size="19" font-family="sans-serif" font-weight="700" fill="#7566B8">2018</text>
<text x="2638.5714285714284" y="1687" text-anchor="middle" font-size="18" font-family="sans-serif" fill="#243D52">Fortnite Creative</text><line x1="2855.089285714286" y1="1611" x2="2855.089285714286" y2="1592" stroke="#7566B8" stroke-width="2"/><rect x="2846.089285714286" y="1602" width="18" height="18" rx="3" fill="#7566B8" stroke="#FFFFFF" stroke-width="2"/><text x="2873.089285714286" y="1570" text-anchor="end" font-size="19" font-family="sans-serif" font-weight="700" fill="#7566B8">2023</text>
<text x="2873.089285714286" y="1594" text-anchor="end" font-size="18" font-family="sans-serif" fill="#243D52">UEFN</text><line x1="2898.3928571428573" y1="1611" x2="2898.3928571428573" y2="1630" stroke="#814CA5" stroke-width="2"/><polygon points="2898.3928571428573,1598 2910.3928571428573,1611 2898.3928571428573,1624 2886.3928571428573,1611" fill="#814CA5" stroke="#FFF" stroke-width="2"/><text x="2916.3928571428573" y="1663" text-anchor="end" font-size="19" font-family="sans-serif" font-weight="700" fill="#814CA5">2024</text>
<text x="2916.3928571428573" y="1687" text-anchor="end" font-size="18" font-family="sans-serif" fill="#243D52">Epic 70k作者</text><rect x="92" y="1801" width="2895" height="108" rx="14" fill="#E8EEF5"/>
<text x="118" y="1840" font-family="sans-serif" font-size="21" font-weight="700" fill="#1E415B">读图：专业主体和中等核心可能同年出现；某个小制作组也可能完全属于大公司。</text>
<text x="118" y="1874" font-family="sans-serif" font-size="20" fill="#4F6478">目前只有平台级 2024 Epic 作者总量的“Q”分母。其他品类并未证实连续多作者量产年份；需按开发者 ID 去重。详见 008 CSV / 008 研究说明。</text>
</svg>